<?xml version="1.0" encoding="utf-8"?>
<!-- Generator: Adobe Illustrator 16.0.0, SVG Export Plug-In . SVG Version: 6.00 Build 0)  -->
<!DOCTYPE svg PUBLIC "-//W3C//DTD SVG 1.1//EN" "http://www.w3.org/Graphics/SVG/1.1/DTD/svg11.dtd">
<svg version="1.1" id="Layer_1" xmlns="http://www.w3.org/2000/svg" xmlns:xlink="http://www.w3.org/1999/xlink" x="0px" y="0px"
	 width="152px" height="20px" viewBox="0 0 152 20" enable-background="new 0 0 152 20" xml:space="preserve">
<g>
	<path fill="#808081" d="M19.826,10c0,5.475-4.438,9.913-9.913,9.913S0,15.475,0,10c0-5.474,4.438-9.913,9.913-9.913
		S19.826,4.526,19.826,10"/>
	<path fill="#808081" d="M52.871,10c0,5.475-4.44,9.913-9.915,9.913c-5.473,0-9.913-4.438-9.913-9.913
		c0-5.474,4.44-9.913,9.913-9.913C48.431,0.087,52.871,4.526,52.871,10"/>
	<path fill="#808081" d="M85.914,10c0,5.475-4.438,9.913-9.913,9.913c-5.475,0-9.912-4.438-9.912-9.913
		c0-5.474,4.438-9.913,9.912-9.913C81.477,0.087,85.914,4.526,85.914,10"/>
	<path fill="#EBECEC" d="M118.957,10c0,5.475-4.438,9.913-9.912,9.913c-5.476,0-9.913-4.438-9.913-9.913
		c0-5.474,4.438-9.913,9.913-9.913C114.52,0.087,118.957,4.526,118.957,10"/>
	<path fill="#EBECEC" d="M152,10c0,5.475-4.438,9.913-9.912,9.913c-5.476,0-9.913-4.438-9.913-9.913
		c0-5.474,4.438-9.913,9.913-9.913C147.563,0.087,152,4.526,152,10"/>
</g>
</svg>
